<?xml version="1.0" encoding="UTF-8" standalone="no"?>
<!-- Created with Inkscape (http://www.inkscape.org/) -->

<svg
   xmlns:dc="http://purl.org/dc/elements/1.1/"
   xmlns:cc="http://creativecommons.org/ns#"
   xmlns:rdf="http://www.w3.org/1999/02/22-rdf-syntax-ns#"
   xmlns:svg="http://www.w3.org/2000/svg"
   xmlns="http://www.w3.org/2000/svg"
   xmlns:sodipodi="http://sodipodi.sourceforge.net/DTD/sodipodi-0.dtd"
   xmlns:inkscape="http://www.inkscape.org/namespaces/inkscape"
   width="16"
   height="16"
   viewBox="0 0 4.23 4.23"
   version="1.1"
   id="svg8"
   inkscape:version="0.92.3 (2405546, 2018-03-11)"
   sodipodi:docname="text-x-rubble.svg">
  <defs
     id="defs2" />


  <g
     inkscape:label="Layer 1"
     inkscape:groupmode="layer"
     id="layer1"
     transform="translate(-0.10,-292.93)">
    <path
       style="fill:#bfae6b;fill-opacity:1;stroke:#000000;stroke-width:0.02px;stroke-linecap:butt;stroke-linejoin:miter;stroke-opacity:1"
       d="m 1.01,295.11 c -0.03,-0.04 -0.08,-0.08 -0.15,-0.11 -0.03,-0.04 -0.06,-0.10 -0.10,-0.16 -0.03,-0.05 -0.07,-0.11 -0.10,-0.17 -0.01,-0.02 -0.03,-0.03 -0.03,-0.06 -0.03,-0.04 -0.05,-0.11 -0.06,-0.18 -0.00,-0.05 -0.04,-0.15 -0.00,-0.18 0.05,-0.02 0.08,-0.03 0.12,-0.06 0.03,-0.04 0.07,-0.04 0.11,-0.07 0.12,-0.06 0.25,-0.12 0.38,-0.13 0.07,-0.01 0.15,-0.02 0.23,-0.04 0.04,-0.00 0.13,-0.03 0.14,-0.03 0.03,-0.00 0.13,-0.02 0.11,-0.02 0.04,0.01 0.07,0.04 0.10,0.06 0.01,0.06 0.04,0.10 0.05,0.17 0.03,0.10 0.07,0.20 0.08,0.32 -0.00,-0.00 0.02,0.10 0.02,0.13 0.03,0.13 0.06,0.27 0.09,0.42 0.00,0.07 0.02,0.15 -0.02,0.20 -0.04,-0.00 -0.08,0.00 -0.12,0.00 -0.20,-7.8e-4 -0.40,0.00 -0.60,-0.00 -0.07,-0.00 -0.15,-0.02 -0.23,-0.03 -0.02,0.00 -0.04,-4.6e-4 -0.06,-0.02 z"
       id="path29"
       inkscape:connector-curvature="0" />
    <path
       style="fill:#d3cba2;fill-opacity:1;stroke:#000000;stroke-width:0.02px;stroke-linecap:butt;stroke-linejoin:miter;stroke-opacity:1"
       d="m 1.14,295.27 c -0.01,0.06 -0.00,0.13 -0.04,0.19 -0.02,0.03 -0.05,0.14 -0.05,0.11 -0.00,0.05 -0.02,0.07 -0.04,0.12 -0.01,0.06 -0.03,0.11 -0.06,0.17 -0.01,0.05 -0.05,0.14 -0.03,0.19 0.02,-1.3e-4 -9.45e-4,-6e-5 0.03,-1e-4 0.05,0.01 0.06,0.00 0.11,-0.00 0.03,-0.01 0.10,-0.03 0.11,-0.02 0.02,-0.00 0.09,0.05 0.14,0.07 0.07,0.04 0.15,0.10 0.23,0.14 0.05,0.02 0.10,0.03 0.14,0.07 0.06,0.03 0.13,0.05 0.20,0.07 0.05,0.02 0.14,0.03 0.17,0.07 0.01,0.04 0.01,0.05 0.04,0.04 0.00,0.00 0.02,-0.01 0.04,-0.02 0.06,-0.04 0.11,-0.09 0.17,-0.13 0.01,-0.02 0.03,-0.07 0.05,-0.11 0.02,-0.07 0.06,-0.13 0.07,-0.21 0.01,-0.04 0.01,-0.09 0.01,-0.14 7.42e-4,-0.07 0.00,-0.15 0.01,-0.23 0.00,-0.16 5.67e-4,-0.32 0.00,-0.48 -0.02,0.01 -0.07,0.04 -0.09,0.03 -0.02,0.00 -0.08,0.00 -0.11,-0.00 -0.07,-0.01 -0.16,0.01 -0.24,-0.00 -0.06,-0.02 -0.21,0.02 -0.28,-7.7e-4 -0.12,-4.6e-4 -0.20,-0.01 -0.31,0.01 -0.11,0.02 -0.10,-0.03 -0.22,-0.00 z"
       id="path31"
       inkscape:connector-curvature="0"
       sodipodi:nodetypes="ccccccccccccccccccccccccccccc" />
    <path
       style="fill:#a6a695;fill-opacity:1;stroke:#000000;stroke-width:0.02px;stroke-linecap:butt;stroke-linejoin:miter;stroke-opacity:1"
       d="m 3.29,296.85 c -0.05,-0.02 -0.11,-0.06 -0.17,-0.06 -0.07,-0.02 -0.15,-0.03 -0.22,-0.05 -0.06,-0.01 -0.16,-0.04 -0.11,-0.14 -0.00,-0.05 -0.01,-0.16 -0.01,-0.18 0.00,0.04 0.01,0.09 0.00,0.02 -0.03,-0.27 -0.08,-0.54 -0.13,-0.80 -0.00,-0.03 0.01,0.07 -0.00,-0.01 -0.02,-0.11 -0.04,-0.22 -0.06,-0.33 0.00,-0.09 0.12,-0.10 0.18,-0.15 0.07,-0.05 0.16,-0.09 0.24,-0.15 0.06,-0.05 0.11,-0.11 0.17,-0.17 0.07,-0.02 0.07,0.12 0.11,0.16 0.04,0.07 0.08,0.14 0.12,0.21 0.06,0.04 0.14,0.07 0.18,0.16 0.01,0.02 0.07,0.11 0.05,0.10 0.00,0.03 0.08,0.14 0.12,0.20 0.04,0.07 0.01,0.16 -8.46e-4,0.24 -0.05,0.19 -0.11,0.39 -0.17,0.58 -0.03,0.12 -0.10,0.24 -0.16,0.35 -0.04,0.03 -0.08,0.02 -0.13,0.02 z"
       id="path39"
       inkscape:connector-curvature="0" />
    <path
       style="fill:#e8e9c6;fill-opacity:1;stroke:#000000;stroke-width:0.02px;stroke-linecap:butt;stroke-linejoin:miter;stroke-opacity:1"
       d="m 2.18,295.10 c -0.06,-0.05 0.01,-0.17 -0.03,-0.27 -0.05,-0.09 -0.04,-0.21 -0.07,-0.33 0.03,-0.29 -0.11,-0.42 -0.13,-0.62 -0.01,-0.12 -0.04,-0.27 0.00,-0.38 0.08,-0.06 0.19,-0.01 0.29,-0.05 0.15,-0.04 0.30,-0.11 0.46,-0.13 0.05,0.00 0.19,-0.05 0.12,0.05 -0.04,0.10 -0.08,0.22 -0.06,0.34 0.04,0.11 0.16,0.01 0.24,0.06 0.09,0.02 0.19,0.00 0.28,-0.01 0.16,-0.01 0.32,-0.05 0.49,-0.06 0.03,0.09 -0.01,0.21 -0.01,0.31 -0.02,0.13 -0.09,0.24 -0.15,0.36 -0.05,0.08 -0.15,0.11 -0.22,0.17 -0.09,0.08 -0.20,0.13 -0.31,0.19 -0.11,0.05 -0.22,0.13 -0.34,0.20 -0.08,0.02 -0.13,0.12 -0.22,0.12 -0.10,0.01 -0.23,0.10 -0.29,0.05 z"
       id="path892"
       inkscape:connector-curvature="0"
       sodipodi:nodetypes="zsccccccccccccccccz" />
  </g>
</svg>
